# xmcd
#
# Track frame offsets:
# 150
# 22033
# 46502
# 62201
# 81846
# 99872
# 115345
# 134816
# 153496
# 169707
# 186122
# 210090
# 221400
# 233916
# 252147
# 270313
#
# Disc length: 3890 seconds
#
#
# Revision: 0
# Processed by: cddbd v1.5PL3 Copyright (c) Steve Scherf et al.
# Submitted via: FreeRIP 2.40 
#
DISCID=d10f3010
DTITLE=Love Forever-¬üÄR»P«s·T Disc2
DYEAR=2004
DGENRE=Pop
TTITLE0=Foreigner-I Want To Know What Love Is
TTITLE1=Laura Branigan-The Power Of Love
TTITLE2=Mr Big-To Be With You
TTITLE3=Peter Cetera-Glory Of Love
TTITLE4=The Pretenders-I Will Stand By You
TTITLE5=Simply Red-If You Do Not Know Me By Now
TTITLE6=Bad English-When I See You Smile
TTITLE7=Phil Collins and Marilyn Martin-Separate Lives
TTITLE8=Linda Ronstadt- Desperado
TTITLE9=LeAnn Rimes-You Light Up My Life
TTITLE10=Don Mclean-Vincent
TTITLE11=Carly Simon and James Taylor-Devoted To You
TTITLE12=David Gates-Goodbye Girl
TTITLE13=Sixpence None The Richer-Do Not Dream It Is Over
TTITLE14=The Corrs-Dreams
TTITLE15=Climie Fisher-Rise To The Occasion
EXTD=
EXTT0=
EXTT1=
EXTT2=
EXTT3=
EXTT4=
EXTT5=
EXTT6=
EXTT7=
EXTT8=
EXTT9=
EXTT10=
EXTT11=
EXTT12=
EXTT13=
EXTT14=
EXTT15=
PLAYORDER=
